<?xml version="1.0" standalone="no"?>
<!DOCTYPE svg PUBLIC "-//W3C//DTD SVG 20010904//EN"
 "http://www.w3.org/TR/2001/REC-SVG-20010904/DTD/svg10.dtd">
<svg version="1.0" xmlns="http://www.w3.org/2000/svg"
 width="300.000000pt" height="300.000000pt" viewBox="0 0 300.000000 300.000000"
 preserveAspectRatio="xMidYMid meet">
<metadata>
Created by potrace 1.14, written by Peter Selinger 2001-2017
</metadata>
<g transform="translate(0.000000,300.000000) scale(0.100000,-0.100000)"
fill="#000000" stroke="none">
<path d="M1386 2893 c-4 -5 -12 -9 -17 -9 -5 -1 -10 -3 -11 -4 -4 -3 -84 -11
-120 -12 -15 -1 -25 -5 -22 -9 3 -5 -1 -6 -9 -3 -8 3 -17 -2 -21 -12 -4 -11
-10 -13 -19 -6 -13 10 -47 8 -56 -5 -6 -8 -15 -11 -61 -20 -13 -2 -27 -7 -30
-11 -3 -4 -12 -8 -20 -10 -8 -2 -30 -10 -48 -18 -18 -8 -37 -12 -42 -9 -6 3
-10 2 -10 -3 0 -4 -22 -19 -50 -31 -27 -12 -50 -26 -50 -31 0 -5 -14 -11 -31
-15 -17 -4 -33 -13 -36 -21 -3 -8 -11 -14 -19 -14 -8 0 -14 -5 -14 -10 0 -6
-3 -9 -7 -9 -20 3 -34 -2 -28 -10 3 -5 -4 -12 -15 -16 -11 -3 -20 -11 -20 -17
0 -6 -3 -9 -6 -6 -5 6 -30 -13 -88 -67 -11 -11 -24 -19 -28 -18 -5 2 -8 -4 -8
-12 0 -8 -3 -14 -8 -12 -10 3 -52 -40 -45 -47 3 -3 -6 -11 -20 -17 -15 -7 -24
-16 -21 -20 3 -5 0 -9 -5 -9 -6 0 -11 -7 -11 -16 0 -10 -6 -14 -15 -10 -9 3
-15 0 -15 -10 0 -8 -16 -31 -35 -50 -20 -19 -33 -39 -30 -44 3 -4 -2 -10 -10
-14 -8 -3 -15 -12 -15 -20 0 -8 -5 -18 -12 -22 -7 -5 -8 -3 -3 6 5 9 4 11 -3
6 -7 -4 -12 -14 -12 -23 0 -9 -12 -26 -26 -39 -14 -14 -22 -29 -18 -36 4 -6 3
-8 -3 -5 -14 9 -23 -11 -44 -95 -7 -27 -16 -48 -21 -48 -5 0 -7 -4 -4 -9 3 -5
-5 -20 -19 -35 -13 -14 -22 -26 -19 -26 5 0 -9 -18 -32 -43 -6 -6 -9 -19 -6
-29 2 -10 -1 -18 -8 -18 -9 0 -10 -3 -1 -13 8 -10 7 -17 -1 -25 -7 -7 -8 -12
-4 -12 5 0 2 -8 -5 -17 -12 -14 -12 -15 0 -9 10 7 12 3 6 -14 -6 -17 -4 -21 6
-14 12 6 12 5 1 -9 -8 -9 -14 -41 -13 -77 0 -44 -3 -59 -12 -53 -9 5 -9 3 0
-8 10 -12 10 -18 1 -27 -9 -9 -9 -12 1 -12 7 0 9 -5 5 -12 -12 -19 -12 -192 0
-207 8 -11 8 -13 -1 -7 -7 4 -13 2 -13 -3 0 -6 4 -11 8 -11 11 0 9 -41 -2 -59
-6 -10 -6 -12 2 -7 8 4 12 -1 13 -13 2 -30 3 -34 13 -50 6 -10 5 -12 -2 -7 -7
4 -12 3 -12 -3 0 -5 4 -12 8 -15 5 -3 9 -20 10 -38 0 -18 6 -34 12 -36 7 -3 7
-9 -2 -20 -10 -12 -10 -14 0 -8 11 7 18 -12 13 -38 -1 -5 3 -12 10 -16 6 -4
12 -19 12 -34 -1 -15 4 -23 10 -19 6 4 8 0 4 -10 -3 -9 0 -22 7 -29 7 -7 11
-18 9 -24 -2 -7 3 -19 11 -27 9 -9 17 -25 19 -37 2 -12 10 -26 18 -31 8 -5 10
-9 4 -9 -5 0 -5 -4 2 -8 6 -4 13 -16 15 -27 1 -11 11 -27 21 -36 9 -9 17 -21
17 -26 0 -6 13 -26 30 -44 16 -19 30 -39 30 -46 0 -7 9 -17 20 -23 11 -6 20
-15 20 -20 0 -6 14 -23 31 -40 18 -16 28 -30 23 -30 -5 -1 1 -9 13 -19 12 -10
19 -21 16 -25 -4 -3 -1 -6 6 -6 7 0 9 -4 6 -10 -3 -6 1 -10 9 -10 9 0 16 -5
16 -11 0 -5 4 -7 10 -4 5 3 10 2 10 -2 0 -5 18 -17 40 -27 22 -10 38 -22 35
-27 -4 -5 0 -9 9 -9 8 0 16 -4 18 -9 2 -5 9 -11 16 -13 8 -2 27 -15 44 -30 16
-16 34 -25 39 -22 5 3 12 -2 15 -10 3 -9 12 -16 19 -16 7 0 18 -7 25 -15 7 -8
16 -12 21 -9 5 3 9 0 9 -5 0 -6 4 -11 9 -11 5 0 26 -8 47 -17 22 -9 42 -16 47
-15 4 1 7 -2 7 -8 0 -5 7 -7 15 -4 8 4 15 2 15 -3 0 -5 8 -10 18 -11 21 -2 65
-10 72 -12 3 -1 8 -2 13 -1 4 0 7 -4 7 -10 0 -5 4 -7 10 -4 6 3 10 1 10 -6 0
-6 8 -9 20 -6 11 3 20 1 20 -3 0 -4 9 -6 20 -3 11 3 20 1 20 -5 0 -5 15 -10
34 -10 19 0 39 -3 45 -6 6 -4 36 -9 68 -12 31 -2 59 -6 61 -9 2 -2 15 0 28 5
14 6 26 6 29 0 4 -6 14 -6 27 1 15 8 19 8 14 0 -4 -6 -2 -11 3 -11 6 0 11 5
11 11 0 5 5 7 10 4 18 -11 90 -8 105 5 11 9 15 9 15 1 0 -7 5 -9 13 -4 16 10
38 10 58 1 11 -5 21 -2 29 7 6 7 19 11 27 8 12 -5 14 -3 8 8 -7 11 -6 12 6 4
16 -12 39 -13 57 -2 6 5 17 5 24 1 7 -4 8 -3 4 5 -5 8 2 11 21 11 46 0 63 3
63 12 0 5 5 6 10 3 6 -3 10 -2 10 2 0 5 8 9 18 10 40 4 58 9 80 21 12 7 27 10
32 7 6 -3 10 -1 10 6 0 7 3 9 7 6 3 -4 12 1 20 11 10 11 12 12 8 2 -5 -12 -4
-12 7 1 7 9 18 14 24 12 7 -2 18 2 26 9 7 7 20 14 28 16 8 2 18 9 22 15 4 7 8
8 8 3 0 -5 6 -3 13 3 8 6 17 8 20 4 4 -3 7 -2 7 4 0 6 12 18 26 28 18 11 24
13 19 4 -5 -8 3 -4 17 9 13 12 28 19 31 15 4 -3 7 1 7 11 0 9 5 14 10 11 6 -3
10 -1 10 4 0 6 3 10 8 10 19 -3 32 2 30 13 -2 7 4 12 12 13 8 1 14 6 13 13 -2
6 4 9 12 6 8 -4 15 -1 15 5 0 6 7 11 15 11 8 0 14 5 13 12 -2 6 6 17 17 23 41
23 117 104 109 116 -4 8 -3 9 5 5 6 -4 14 0 17 8 3 9 12 16 19 16 7 0 18 14
24 30 5 17 17 33 26 36 9 4 24 23 35 43 10 20 28 43 39 51 11 8 16 17 11 20
-5 3 3 19 18 36 26 28 34 45 35 71 0 7 3 10 7 8 11 -7 33 42 26 54 -4 6 -2 11
3 11 6 0 11 6 11 14 0 8 6 16 13 19 15 6 16 34 2 57 -4 8 -5 12 0 8 14 -13 43
31 39 61 -2 19 2 31 12 35 8 3 12 10 9 16 -3 5 -2 10 3 10 5 0 8 11 7 25 -2
14 1 27 6 31 5 3 7 10 4 15 -4 5 -1 9 5 9 6 0 8 5 3 13 -10 16 -10 40 0 48 13
9 15 43 4 57 -6 8 -6 12 3 12 8 0 10 3 7 7 -4 3 -1 13 6 21 10 13 9 14 -3 7
-13 -8 -13 -7 -1 9 9 10 11 20 5 24 -11 8 -15 44 -5 37 14 -8 7 149 -7 161
-11 8 -11 12 2 23 9 7 13 18 9 25 -10 15 -14 35 -16 74 -1 17 -5 32 -10 32 -4
0 -5 5 -2 10 3 6 2 10 -2 10 -5 0 -8 18 -7 40 0 26 -4 40 -12 40 -7 0 -16 5
-20 12 -4 6 -3 8 3 5 7 -4 10 5 9 23 0 16 -6 32 -13 34 -6 3 -10 16 -9 30 2
14 -1 23 -5 20 -5 -3 -9 4 -9 15 0 10 -4 21 -10 23 -5 2 -11 12 -14 23 -9 44
-19 65 -27 59 -8 -5 -13 9 -10 29 0 4 -4 7 -10 7 -6 0 -9 7 -5 15 3 9 -3 19
-15 25 -11 6 -17 15 -14 21 4 5 1 9 -4 9 -6 0 -10 3 -9 8 4 13 -23 53 -33 47
-5 -4 -9 3 -9 14 0 12 -5 21 -11 21 -5 0 -7 5 -4 10 3 6 -1 10 -10 10 -9 0
-14 4 -11 9 3 5 -1 11 -9 15 -8 3 -15 10 -15 16 0 6 -18 28 -40 49 -22 21 -37
41 -33 44 5 6 -7 10 -27 9 -3 0 -11 6 -18 14 -7 8 -10 14 -7 14 4 0 0 7 -9 15
-8 8 -19 15 -25 15 -5 0 -13 9 -16 21 -5 14 -13 19 -25 16 -14 -4 -17 -1 -13
12 4 9 3 13 -2 9 -4 -4 -27 8 -50 27 -23 19 -49 35 -57 35 -8 0 -23 9 -33 20
-10 11 -26 20 -35 20 -9 0 -26 9 -38 20 -12 11 -26 20 -32 20 -5 0 -10 6 -10
13 0 8 -4 7 -10 -3 -6 -9 -10 -10 -10 -3 0 6 -10 15 -22 19 -13 4 -34 15 -47
25 -13 10 -27 16 -32 13 -5 -3 -9 0 -9 5 0 6 -13 11 -29 11 -16 0 -34 6 -40
14 -7 8 -21 13 -32 11 -10 -2 -19 -1 -19 3 0 14 -69 29 -81 18 -9 -8 -10 -8
-5 2 6 11 -18 18 -46 13 -5 0 -8 3 -8 7 0 5 -12 9 -27 10 -16 1 -43 3 -60 5
-18 1 -33 6 -33 12 0 5 -5 3 -10 -5 -5 -8 -10 -10 -10 -3 0 13 -18 12 -39 -1
-10 -6 -12 -5 -7 2 5 8 -3 11 -23 8 -17 -2 -31 0 -31 5 0 4 -13 4 -29 -1 -15
-4 -34 -4 -41 0 -15 9 -52 1 -62 -14 -5 -7 -8 -7 -8 2 0 9 -7 11 -21 7 -15 -5
-19 -4 -15 4 8 13 3 15 -8 4z"/>
</g>
</svg>
